<svg width="16" height="17" viewBox="0 0 16 17" fill="none" xmlns="http://www.w3.org/2000/svg">
<path d="M6.10209 4.10562C6.94652 2.59079 7.36874 1.83337 7.99998 1.83337C8.63122 1.83337 9.05344 2.59079 9.89787 4.10562L10.1163 4.49753C10.3563 4.928 10.4763 5.14323 10.6634 5.28525C10.8504 5.42726 11.0834 5.47997 11.5494 5.58541L11.9736 5.68139C13.6134 6.05241 14.4333 6.23792 14.6284 6.86519C14.8234 7.49247 14.2645 8.14609 13.1466 9.45332L12.8574 9.79152C12.5397 10.163 12.3809 10.3487 12.3094 10.5785C12.2379 10.8083 12.262 11.0561 12.31 11.5517L12.3537 12.003C12.5227 13.7471 12.6072 14.6192 12.0965 15.0069C11.5859 15.3945 10.8182 15.0411 9.28286 14.3342L8.88566 14.1513C8.44936 13.9504 8.23122 13.8499 7.99998 13.8499C7.76874 13.8499 7.5506 13.9504 7.1143 14.1513L6.7171 14.3342C5.18176 15.0411 4.4141 15.3945 3.90341 15.0069C3.39273 14.6192 3.47723 13.7471 3.64624 12.003L3.68997 11.5517C3.738 11.0561 3.76201 10.8083 3.69056 10.5785C3.6191 10.3487 3.46026 10.163 3.14259 9.79152L2.85338 9.45332C1.73548 8.14609 1.17653 7.49247 1.37159 6.86519C1.56666 6.23792 2.38655 6.05241 4.02634 5.68139L4.45057 5.58541C4.91655 5.47997 5.14953 5.42726 5.33661 5.28525C5.52368 5.14323 5.64366 4.928 5.88362 4.49753L6.10209 4.10562Z" fill="#FDF41A" stroke="#FDF41A" stroke-width="1.5"/>
</svg>
